HIERARCHY
ROOT Hips
{
	OFFSET 0.000000 0.000000 0.000000
	CHANNELS 6 Xposition Yposition Zposition Zrotation Yrotation Xrotation 
	JOINT LHipJoint
	{
		OFFSET 0.000000 0.000000 0.000000
		CHANNELS 3 Zrotation Yrotation Xrotation
		JOINT LeftUpLeg
		{
			OFFSET 1.363060 -1.794630 0.839290
			CHANNELS 3 Zrotation Yrotation Xrotation
			JOINT LeftLeg
			{
				OFFSET 2.448110 -6.726130 0.000000
				CHANNELS 3 Zrotation Yrotation Xrotation
				JOINT LeftFoot
				{
					OFFSET 2.562200 -7.039590 0.000000
					CHANNELS 3 Zrotation Yrotation Xrotation
					JOINT LeftToeBase
					{
						OFFSET 0.157640 -0.433110 2.322550
						CHANNELS 3 Zrotation Yrotation Xrotation
						End Site
						{
							OFFSET 0.000000 0.000000 0.000000
						}
					}
				}
			}
		}
	}
	JOINT RHipJoint
	{
		OFFSET 0.000000 0.000000 0.000000
		CHANNELS 3 Zrotation Yrotation Xrotation
		JOINT RightUpLeg
		{
			OFFSET -1.305520 -1.794630 0.839290
			CHANNELS 3 Zrotation Yrotation Xrotation
			JOINT RightLeg
			{
				OFFSET -2.542530 -6.985550 0.000000
				CHANNELS 3 Zrotation Yrotation Xrotation
				JOINT RightFoot
				{
					OFFSET -2.568260 -7.056230 0.000000
					CHANNELS 3 Zrotation Yrotation Xrotation
					JOINT RightToeBase
					{
						OFFSET -0.164730 -0.452590 2.363150
						CHANNELS 3 Zrotation Yrotation Xrotation
						End Site
						{
							OFFSET 0.000000 0.000000 0.000000
						}
					}
				}
			}
		}
	}
	JOINT LowerBack
	{
		OFFSET 0.000000 0.000000 0.000000
		CHANNELS 3 Zrotation Yrotation Xrotation
		JOINT Spine
		{
			OFFSET 0.028270 2.035590 -0.193380
			CHANNELS 3 Zrotation Yrotation Xrotation
			JOINT Spine1
			{
				OFFSET 0.056720 2.048850 -0.042750
				CHANNELS 3 Zrotation Yrotation Xrotation
				JOINT Neck
				{
					OFFSET 0.000000 0.000000 0.000000
					CHANNELS 3 Zrotation Yrotation Xrotation
					JOINT Neck1
					{
						OFFSET -0.054170 1.746240 0.172020
						CHANNELS 3 Zrotation Yrotation Xrotation
						JOINT Head
						{
							OFFSET 0.104070 1.761360 -0.123970
							CHANNELS 3 Zrotation Yrotation Xrotation
							End Site
							{
								OFFSET 0.000000 0.000000 0.000000
							}
						}
					}
				}
				JOINT LeftShoulder
				{
					OFFSET 0.000000 0.000000 0.000000
					CHANNELS 3 Zrotation Yrotation Xrotation
					JOINT LeftArm
					{
						OFFSET 3.362410 1.200890 -0.311210
						CHANNELS 3 Zrotation Yrotation Xrotation
						JOINT LeftForeArm
						{
							OFFSET 4.983000 -0.000000 -0.000000
							CHANNELS 3 Zrotation Yrotation Xrotation
							JOINT LeftHand
							{
								OFFSET 3.483560 -0.000000 -0.000000
								CHANNELS 3 Zrotation Yrotation Xrotation
								JOINT LeftFingerBase
								{
									OFFSET 0.000000 0.000000 0.000000
									CHANNELS 3 Zrotation Yrotation Xrotation
									JOINT LeftHandIndex1
									{
										OFFSET 0.715260 -0.000000 -0.000000
										CHANNELS 3 Zrotation Yrotation Xrotation
										End Site
										{
											OFFSET 0.000000 0.000000 0.000000
										}
									}
								}
								JOINT LThumb
								{
									OFFSET 0.000000 0.000000 0.000000
									CHANNELS 3 Zrotation Yrotation Xrotation
									End Site
									{
										OFFSET 0.000000 0.000000 0.000000
									}
								}
							}
						}
					}
				}
				JOINT RightShoulder
				{
					OFFSET 0.000000 0.000000 0.000000
					CHANNELS 3 Zrotation Yrotation Xrotation
					JOINT RightArm
					{
						OFFSET -3.136600 1.374050 -0.404650
						CHANNELS 3 Zrotation Yrotation Xrotation
						JOINT RightForeArm
						{
							OFFSET -5.241900 -0.000000 -0.000000
							CHANNELS 3 Zrotation Yrotation Xrotation
							JOINT RightHand
							{
								OFFSET -3.444170 -0.000000 -0.000000
								CHANNELS 3 Zrotation Yrotation Xrotation
								JOINT RightFingerBase
								{
									OFFSET 0.000000 0.000000 0.000000
									CHANNELS 3 Zrotation Yrotation Xrotation
									JOINT RightHandIndex1
									{
										OFFSET -0.622530 -0.000000 -0.000000
										CHANNELS 3 Zrotation Yrotation Xrotation
										End Site
										{
											OFFSET 0.000000 0.000000 0.000000
										}
									}
								}
								JOINT RThumb
								{
									OFFSET 0.000000 0.000000 0.000000
									CHANNELS 3 Zrotation Yrotation Xrotation
									End Site
									{
										OFFSET 0.000000 0.000000 0.000000
									}
								}
							}
						}
					}
				}
			}
		}
	}
}
MOTION
Frames: 6
Frame Time: 0.008333
3.727275 17.461283 2.261412 147.013450 -88.598477 -130.815838 -10.064132 1.449225 -0.272087 -10.227177 3.481948 -9.825406 -2.506125 -0.712330 6.616902 0.316760 1.638226 -2.773808 0.235501 -0.000000 -39.464900 9.817226 0.181344 -1.624187 9.183704 -6.586428 -40.608922 1.409273 -3.300104 41.074951 -1.347035 -5.431751 -3.749936 -0.741200 0.000000 -40.137900 -1.492715 -2.441264 2.977623 -1.455119 -2.376084 -2.074999 -8.392586 -2.358715 1.359127 11.300360 -4.192702 -4.378901 -4.252356 -0.332501 0.689685 0.000000 0.000000 0.000000 -4.989150 2.879897 3.866423 -34.578967 -18.718860 21.822435 -2.521055 -60.778803 0.022165 -13.581904 -1.478650 0.186597 -0.029225 0.082958 0.000000 0.000000 0.000000 0.000000 0.000000 0.000000 0.000000 20.501215 -3.358950 1.182131 52.581805 -0.373645 15.443924 3.187975 35.920842 0.012670 6.275897 10.333087 0.566599 0.044161 -0.036881 0.000000 0.000000 0.000000 0.000000 0.000000 0.000000 0.000000 
3.514967 17.440787 2.236742 138.619789 -88.858091 -122.433094 -9.972032 1.559572 -0.398138 -10.074851 3.853669 -8.693723 -2.551790 -0.716538 6.052995 0.241372 1.046711 -2.614216 0.197900 0.000000 -40.437900 9.809710 0.342696 -1.390537 9.075591 -6.242319 -41.019513 1.574646 -3.042777 38.026845 -1.392214 -5.651066 -3.316462 -0.861500 0.000000 -40.297001 -1.299712 -2.591167 2.917822 -1.422545 -2.541362 -2.045581 -8.406194 -2.512948 1.446455 11.400151 -4.860754 -4.522914 -4.225690 -0.329907 0.657004 0.000000 0.000000 0.000000 -4.497991 2.729493 3.864819 -33.024983 -19.791363 21.230903 -2.339919 -62.167023 0.024960 -13.647261 -1.535865 0.196126 -0.013335 0.096693 -0.000000 0.000000 0.000000 0.000000 0.000000 0.000000 0.000000 20.616554 -4.091085 1.122830 52.420574 -1.279251 16.165211 3.131264 37.072185 0.012229 6.289999 10.372108 0.570095 0.042327 -0.035573 0.000000 0.000000 0.000000 0.000000 0.000000 0.000000 0.000000 
3.302411 17.413625 2.209936 129.154803 -89.004745 -112.975543 -9.869461 1.686769 -0.522063 -9.945328 4.170618 -7.570876 -2.596846 -0.711383 5.550242 0.179952 0.511462 -2.561009 0.159100 -0.000000 -41.402600 9.820238 0.533823 -1.150375 8.892693 -5.895750 -41.336516 1.721437 -2.745661 34.810324 -1.426201 -5.852044 -2.720332 -1.006200 0.000000 -40.345200 -1.166419 -2.716708 2.854514 -1.397218 -2.678636 -2.017317 -8.405994 -2.640057 1.533732 11.484450 -5.549708 -4.675901 -4.191501 -0.326765 0.621960 0.000000 0.000000 0.000000 -3.984846 2.613708 3.844407 -31.413933 -20.809517 20.541423 -2.158902 -63.471805 0.027692 -13.725936 -1.581698 0.204540 0.003736 0.110320 -0.000000 0.000000 0.000000 0.000000 0.000000 0.000000 0.000000 20.695707 -4.828783 1.063452 52.237462 -2.176369 16.864296 3.073022 38.243646 0.011849 6.308859 10.404656 0.573694 0.040554 -0.034741 0.000000 0.000000 0.000000 0.000000 0.000000 0.000000 0.000000 
3.089344 17.380030 2.181253 119.737277 -89.028603 -103.560066 -9.780117 1.820462 -0.642234 -9.848971 4.430145 -6.451691 -2.639775 -0.700665 5.098583 0.130715 0.035221 -2.606187 0.122099 0.000000 -42.372601 9.831634 0.738677 -0.904375 8.631313 -5.559837 -41.577408 1.855764 -2.413270 31.437619 -1.437081 -5.979936 -1.984917 -1.164500 -0.000000 -40.274000 -1.112761 -2.823418 2.786117 -1.383201 -2.792664 -1.990509 -8.390103 -2.744904 1.619466 11.551822 -6.253112 -4.834561 -4.149884 -0.323104 0.585430 0.000000 0.000000 0.000000 -3.456121 2.529581 3.807329 -29.751354 -21.764184 19.757696 -1.980784 -64.684003 0.030356 -13.814064 -1.616144 0.211841 0.021756 0.123739 -0.000000 0.000000 0.000000 0.000000 0.000000 0.000000 0.000000 20.736502 -5.569195 1.003085 52.038847 -3.066051 17.519873 3.014381 39.415305 0.011532 6.332104 10.429483 0.577394 0.038872 -0.034328 0.000000 0.000000 0.000000 0.000000 0.000000 0.000000 0.000000 
2.875520 17.340449 2.150973 111.423273 -88.943976 -95.242025 -9.712307 1.948477 -0.760060 -9.790292 4.631349 -5.329760 -2.680139 -0.689297 4.689875 0.090922 -0.385355 -2.730928 0.089300 -0.000000 -43.368300 9.838344 0.939441 -0.650861 8.291000 -5.249434 -41.761168 1.985056 -2.052678 27.921789 -1.413937 -5.984437 -1.133038 -1.321100 0.000000 -40.136999 -1.137112 -2.920526 2.711966 -1.381776 -2.893288 -1.965881 -8.359263 -2.837418 1.700343 11.601973 -6.945249 -4.992007 -4.101832 -0.319032 0.549185 0.000000 0.000000 0.000000 -2.927608 2.481172 3.760011 -28.028635 -22.664645 18.892646 -1.808994 -65.789778 0.032970 -13.902815 -1.639901 0.217935 0.040257 0.136954 -0.000000 0.000000 0.000000 0.000000 0.000000 0.000000 0.000000 20.738962 -6.289934 0.939745 51.834958 -3.980313 18.079026 2.956514 40.581977 0.011240 6.372918 10.440926 0.581895 0.037160 -0.034201 0.000000 0.000000 0.000000 0.000000 0.000000 0.000000 0.000000 
2.660483 17.295315 2.119302 104.724902 -88.775444 -88.528077 -9.660181 2.065072 -0.877114 -9.768003 4.779092 -4.208529 -2.718764 -0.680109 4.322222 0.057837 -0.759530 -2.912681 0.061400 0.000000 -44.410000 9.846170 1.127723 -0.386895 7.876251 -4.973452 -41.907794 2.114179 -1.669466 24.281334 -1.348010 -5.824822 -0.186706 -1.457300 0.000000 -40.038101 -1.224862 -3.015025 2.629819 -1.390458 -2.988559 -1.942940 -8.310202 -2.925602 1.780170 11.633338 -7.661512 -5.154429 -4.046839 -0.314467 0.511774 0.000000 0.000000 0.000000 -2.383290 2.440246 3.697443 -26.303268 -23.463974 17.929681 -1.645053 -66.784843 0.035522 -13.999331 -1.647545 0.222122 0.059296 0.149787 -0.000000 0.000000 0.000000 0.000000 0.000000 0.000000 0.000000 20.701489 -7.035016 0.876088 51.618712 -4.851797 18.595588 2.900830 41.693804 0.011060 6.389850 10.460426 0.584699 0.035876 -0.034411 0.000000 0.000000 0.000000 0.000000 0.000000 0.000000 0.000000 
